<?xml version="1.0" encoding="UTF-8" standalone="no"?>
<!DOCTYPE svg PUBLIC "-//W3C//DTD SVG 20010904//EN"
              "http://www.w3.org/TR/2001/REC-SVG-20010904/DTD/svg10.dtd">

<svg xmlns="http://www.w3.org/2000/svg"
     width="1.18667in" height="0.913333in"
     viewBox="0 0 356 274">
  <path id="Selection"
        fill="none" stroke="black" stroke-width="1"
        d="M 0.00,0.00
           C 0.00,0.00 0.00,274.00 0.00,274.00
             0.00,274.00 356.00,274.00 356.00,274.00
             356.00,274.00 356.00,0.00 356.00,0.00
             356.00,0.00 0.00,0.00 0.00,0.00 Z
           M 223.00,83.00
           C 233.95,75.70 239.16,72.17 253.00,72.00
             276.14,71.73 293.97,74.84 309.53,94.00
             319.08,105.75 325.82,124.84 326.00,140.00
             326.00,140.00 326.00,157.00 326.00,157.00
             325.95,186.69 308.05,221.48 278.00,230.09
             272.47,231.67 266.76,232.93 261.00,233.00
             239.16,233.25 237.01,232.63 218.00,222.00
             217.17,224.38 216.83,225.64 214.78,227.35
             209.47,231.77 196.91,231.10 192.39,225.89
             187.29,220.01 187.92,209.38 188.00,202.00
             188.00,202.00 190.00,182.00 190.00,182.00
             190.00,182.00 190.00,73.00 190.00,73.00
             189.98,69.31 189.54,54.88 186.57,53.05
             184.92,52.13 179.28,52.97 177.00,53.05
             167.81,53.10 160.35,52.31 160.02,41.00
             159.95,38.72 159.92,35.11 160.74,33.02
             165.06,22.01 184.89,26.78 194.00,26.99
             194.00,26.99 211.00,26.00 211.00,26.00
             215.31,26.00 220.08,25.45 222.99,29.34
             225.37,32.52 225.02,37.22 225.00,41.00
             225.00,41.00 223.00,62.00 223.00,62.00
             223.00,62.00 223.00,83.00 223.00,83.00 Z
           M 60.00,225.00
           C 58.96,227.88 58.25,230.31 55.78,232.35
             51.88,235.57 30.26,240.32 30.00,221.00
             30.00,221.00 31.82,200.00 31.82,200.00
             31.82,200.00 30.00,179.00 30.00,179.00
             29.96,174.98 29.48,169.46 31.74,166.04
             33.00,164.12 34.85,162.57 37.00,161.74
             41.35,160.06 52.12,160.46 55.30,164.28
             58.80,168.47 57.66,174.94 58.29,180.00
             59.43,189.31 62.62,194.63 71.00,199.47
             80.78,205.13 100.63,207.38 111.00,202.65
             117.07,199.88 123.30,193.95 123.89,187.00
             125.52,168.12 100.80,167.56 88.00,165.58
             69.09,162.64 43.92,158.49 36.38,138.00
             33.74,130.80 33.92,126.45 34.00,119.00
             34.32,91.81 60.37,73.30 86.00,73.00
             99.61,72.84 108.58,72.12 121.00,79.00
             121.83,76.62 122.17,75.36 124.22,73.58
             128.55,70.05 140.45,69.90 144.79,73.58
             149.31,77.26 149.06,82.69 149.00,88.00
             149.00,88.00 147.34,104.00 147.34,104.00
             147.34,104.00 149.00,125.00 149.00,125.00
             148.85,135.73 144.29,139.00 134.00,139.00
             130.84,139.00 127.94,139.08 125.10,137.43
             117.11,132.79 121.70,124.29 118.89,115.00
             116.06,105.60 104.05,100.87 95.00,100.18
             83.01,99.28 62.68,109.50 69.09,123.99
             74.08,135.29 91.39,136.65 102.00,138.13
             127.28,141.65 157.63,149.64 158.00,181.00
             158.09,188.63 158.14,191.60 155.64,199.00
             147.90,221.92 122.72,232.96 100.00,233.00
             100.00,233.00 93.00,233.00 93.00,233.00
             79.79,232.98 71.88,230.11 60.00,225.00 Z
           M 249.00,100.53
           C 223.95,107.93 221.92,129.59 222.74,152.00
             223.41,170.33 221.55,195.79 243.00,203.45
             246.59,204.74 249.25,204.95 253.00,205.00
             257.34,205.05 261.83,205.29 266.00,203.90
             286.21,197.14 292.78,173.20 293.00,154.00
             293.25,131.23 286.14,100.12 258.00,100.00
             254.52,99.99 252.48,99.96 249.00,100.53 Z" />
</svg>
